<svg viewBox="0 0 600 600">
  <defs>
    <pattern id="grid1" width="40" height="40" patternUnits="userSpaceOnUse">
      <path d="M 40 0 L 0 0 0 40" fill="none" stroke="#000" stroke-width="1.5"/>
    </pattern>
  </defs>

  <!-- Fond blanc et grille -->
  <rect width="600" height="600" fill="white"/>
  <rect width="600" height="600" fill="url(#grid1)"/>

  <!-- Murs -->
  <rect x="200" y="120" width="280" height="40" fill="#666" stroke="#444" stroke-width="4"/>
  <rect x="200" y="120" width="40" height="320" fill="#666" stroke="#444" stroke-width="4"/>
  <rect x="440" y="120" width="40" height="320" fill="#666" stroke="#444" stroke-width="4"/>
  <rect x="200" y="400" width="280" height="40" fill="#666" stroke="#444" stroke-width="4"/>

  <!-- Portes et plaques - Paire 1 (Orange) -->
  <rect x="320" y="120" width="40" height="40" fill="#FF8C00" stroke="#885000" stroke-width="4"/>
  <polygon points="260,360 280,380 260,400 240,380" fill="#FF8C00" stroke="#885000" stroke-width="4"/>

  <!-- Portes et plaques - Paire 2 (Violet) -->
  <rect x="200" y="240" width="40" height="40" fill="#8A2BE2" stroke="#4A1582" stroke-width="4"/>
  <polygon points="340,40 360,60 340,80 320,60" fill="#8A2BE2" stroke="#4A1582" stroke-width="4"/>

  <!-- Joueurs -->
  <circle cx="260" cy="260" r="15" fill="#4a90e2" stroke="#2171c7" stroke-width="5"/>
  <circle cx="380" cy="260" r="15" fill="#e24a4a" stroke="#c72121" stroke-width="5"/>

  <!-- Objectif -->
  <circle cx="140" cy="260" r="15" fill="#ffd700" stroke="#b59b00" stroke-width="5"/>
</svg>